<?xml version="1.0" encoding="UTF-8"?>
<svg width="625" height="600" version="1.1" viewBox="0 0 260 255.58751" xmlns="http://www.w3.org/2000/svg">
                  <g transform="translate(0 -41.412)">
                  <path d="m153.61 44.155c-1.8311 0-3.5314 0.39239-5.1009 0.91554 3.3352 2.2235 5.1662 5.1663 6.0818 8.5015 0.0655 0.45776 0.19618 0.78476 0.26167 1.2425 0.0655 0.39239 0.13071 0.78476 0.13071 1.1771 0.2617 5.7548-1.5041 6.4742-2.7466 9.8748-1.8965 4.3815-1.3733 9.09 0.91553 12.883 0.1962 0.45775 0.45777 0.98092 0.78477 1.4387-2.4851-16.545 11.313-19.03 13.864-24.196 0.19619-4.5123-3.5314-7.5205-6.4742-9.6132-2.812-1.7003-5.3625-2.2235-7.7167-2.2235zm20.796 3.7276c-0.26168 1.5041-0.0655 1.1117-0.13068 1.8965-0.0655 0.52316-0.0655 1.1771-0.13069 1.7003-0.13069 0.52317-0.2617 1.0463-0.45779 1.5695-0.13068 0.52316-0.32697 1.0463-0.52316 1.5695-0.2617 0.52319-0.45776 0.98095-0.71935 1.5041-0.19618 0.26169-0.32697 0.52316-0.52316 0.78476-0.13069 0.19619-0.26169 0.39237-0.39237 0.58856-0.32697 0.45779-0.65398 0.91554-0.98094 1.3079-0.39239 0.39239-0.71936 0.85014-1.1772 1.1771v0.06548c-0.39236 0.32698-0.78474 0.71935-1.2425 1.0463-1.3733 1.0463-2.9428 1.8311-4.3815 2.812-0.45775 0.32697-0.91554 0.58857-1.3079 0.98094-0.45776 0.32697-0.85015 0.65394-1.2425 1.0463-0.4578 0.39237-0.78477 0.78476-1.1772 1.2425-0.32697 0.39239-0.71934 0.85014-0.98091 1.3079-0.32701 0.45775-0.65397 0.91553-0.91557 1.3733-0.26168 0.52316-0.45776 0.98094-0.71935 1.5041-0.19618 0.52316-0.39238 0.98094-0.52316 1.5041-0.19619 0.58857-0.32698 1.1117-0.45777 1.6349-0.0655 0.26169-0.0655 0.58855-0.1307 0.85014-0.0655 0.26169-0.0655 0.52316-0.13068 0.78476 0 0.52316-0.0655 1.1117-0.0655 1.6349 0 0.39238 0 0.78476 0.0655 1.1771 0 0.52316 0.0655 1.0463 0.19618 1.6349 0.0655 0.52315 0.19618 1.0463 0.327 1.5695 0.1962 0.52316 0.32698 1.0463 0.52316 1.5695 0.13071 0.32701 0.32697 0.65398 0.45779 0.91554l-15.041-5.8202c-2.5505-0.71935-5.0355-1.3733-7.5859-1.9619-1.3733-0.32697-2.7466-0.65396-4.1199-0.98094-3.9238-0.78474-7.9129-1.3733-11.902-1.7657-0.13068 0-0.19618-0.06548-0.32697-0.06548-3.9238-0.39237-7.7821-0.58856-11.706-0.58856-2.8774 0-5.7549 0.13068-8.5669 0.32697-3.9892 0.26169-7.9783 0.78476-11.967 1.4387-0.98095 0.1307-1.9619 0.32701-2.9428 0.52319-2.0273 0.39235-3.9891 0.85014-5.8856 1.3079-0.98094 0.26169-1.9619 0.52317-2.9428 0.78474-0.98091 0.39237-1.8965 0.85016-2.812 1.2425-0.71935 0.32697-1.4387 0.65395-2.158 0.98094-0.13069 0.06548-0.26169 0.06548-0.32697 0.1307-0.65397 0.32697-1.2425 0.58853-1.8311 0.91554-0.19619 0.06548-0.327 0.13068-0.45779 0.19619-0.71935 0.32697-1.4387 0.71934-2.0273 1.0463-0.45778 0.19619-0.91554 0.45778-1.3079 0.65398-0.19619 0.13068-0.45779 0.26168-0.58857 0.32697-0.58857 0.32697-1.1771 0.65394-1.7003 0.98094-0.58857 0.32697-1.1117 0.65394-1.5695 0.98091-0.45775 0.32701-0.91554 0.58857-1.3079 0.91554-0.06551 0.06548-0.13069 0.06548-0.19619 0.1307-0.39238 0.26169-0.85013 0.58856-1.2425 0.91556 0 0-0.06551 0.06548-0.13069 0.13069-0.32697 0.26169-0.65398 0.52316-0.98095 0.78472-0.13069 0.06548-0.26169 0.19619-0.39238 0.26169-0.32697 0.26169-0.65394 0.58857-0.98092 0.85016-0.06551 0.13069-0.19619 0.19619-0.26169 0.26169-0.39238 0.39237-0.78476 0.71934-1.1771 1.1117-0.06551 0-0.06551 0.06548-0.13069 0.13068-0.39238 0.32698-0.78476 0.71936-1.1771 1.1117-0.06551 0.06548-0.06551 0.13068-0.13069 0.13068-0.32697 0.32697-0.65394 0.65398-0.98094 1.0463-0.13069 0.1307-0.32697 0.26169-0.45775 0.39237-0.32697 0.39238-0.71935 0.78476-1.1117 1.1771-0.06551 0.13068-0.19619 0.19619-0.26169 0.32697-0.52316 0.52319-0.98095 1.0463-1.5041 1.5695-0.06551 0.06548-0.13069 0.13068-0.19619 0.19619-1.0464 1.1117-2.1581 2.2235-3.3352 3.2044-1.1771 1.0463-2.4196 2.0273-3.6622 2.8774-1.3079 0.91557-2.5504 1.7003-3.9238 2.485-1.3079 0.71934-2.6812 1.3733-4.1199 1.9619-1.3733 0.58856-2.812 1.1117-4.2507 1.5695-2.7466 0.58856-5.5587 1.7003-7.9783 1.8965-0.52316 0-1.1117 0.1307-1.6349 0.19618-0.58856 0.13069-1.1117 0.26169-1.6349 0.39239-0.52316 0.19618-1.0464 0.39237-1.5695 0.58855-0.52316 0.19619-1.0463 0.45779-1.5695 0.71937-0.45778 0.32696-0.98094 0.58856-1.4387 0.91553-0.45776 0.32697-0.91554 0.71934-1.3079 1.1117-0.45775 0.327-0.91554 0.78476-1.3079 1.1771-0.39238 0.4578-0.78476 0.85017-1.1117 1.3079-0.32697 0.52317-0.71935 0.98096-0.98095 1.5041-0.32697 0.45778-0.65394 0.98094-0.91554 1.5041-0.26169 0.58859-0.52316 1.1117-0.71935 1.7003-0.19619 0.52317-0.39238 1.1117-0.58857 1.7003-0.13069 0.52315-0.26169 1.0463-0.32697 1.5695 0 0.0655-0.065496 0.1307-0.065496 0.19619-0.13069 0.5886-0.13069 1.3734-0.19619 1.7658-0.065496 0.45775-0.13069 0.85012-0.13069 1.3079 0 0.26168 0 0.58853 0.065496 0.85012 0.065496 0.4578 0.13069 0.85016 0.26169 1.2426 0.13069 0.39233 0.26169 0.78471 0.45775 1.1771v0.0655c0.19619 0.3924 0.45778 0.78477 0.71935 1.1771 0.26169 0.39239 0.52319 0.78476 0.85016 1.1771 0.32697 0.32697 0.71935 0.71933 1.1117 1.0463 0.39238 0.39237 0.78476 0.71934 1.2425 1.0463 1.5695 1.3733 1.9619 1.8311 3.9892 2.8774 0.32697 0.1962 0.65397 0.32699 1.0464 0.52318 0.0655 0 0.13069 0.0655 0.19619 0.0655 0 0.13068 0 0.19619 0.0655 0.32701 0.0655 0.52317 0.19619 1.0463 0.32697 1.5695 0.13069 0.58857 0.327 1.1118 0.52319 1.5695 0.19619 0.39238 0.32697 0.78475 0.52316 1.1771 0.0655 0.1307 0.13069 0.26169 0.19619 0.32697 0.26169 0.52315 0.52316 0.98096 0.78472 1.4387 0.327 0.45777 0.65397 0.91553 0.98094 1.3733 0.32697 0.39236 0.71935 0.85014 1.1117 1.2425 0.39238 0.39239 0.78476 0.71938 1.2425 1.1117 0 0 0.06551 0.0655 0.13069 0.0655 0.39238 0.32701 0.78476 0.65399 1.1771 0.91554 0.45775 0.32699 0.91554 0.58856 1.4387 0.85016 0.45778 0.26169 0.98095 0.52315 1.5041 0.71936 0.39238 0.19619 0.85013 0.32699 1.3079 0.45777 0.06551 0.0655 0.13069 0.0655 0.26169 0.13071 0.26169 0.0655 0.58854 0.13067 0.85013 0.19617-0.19619 3.5314-0.26169 6.8666 0.26169 8.0437 0.58854 1.3079 3.466-2.6812 6.3434-7.2589-0.39238 4.5123-0.65397 9.8094 0 11.379 0.71935 1.6349 4.6431-3.466 8.0437-9.09 46.366-10.725 88.677 21.319 93.124 66.573-0.85015-7.0628-9.5478-10.986-13.537-10.006-1.9619 4.8393-5.2971 11.052-10.66 14.91 0.45777-4.3161 0.26167-8.763-0.65395-13.079-1.4387 6.0164-4.2508 11.64-8.1091 16.48-6.2126 0.45775-12.425-2.5505-15.695-7.0628-0.26169-0.1962-0.32697-0.58858-0.52316-0.85016-0.19619-0.4578-0.39238-0.91553-0.52316-1.3733-0.19619-0.45775-0.32697-0.91554-0.39238-1.3733-0.06551-0.4578-0.06551-0.91556-0.06551-1.4387v-0.98093c0.06551-0.45781 0.19619-0.91558 0.32697-1.3734 0.13069-0.45776 0.26169-0.91553 0.45778-1.3733 0.26169-0.45775 0.45775-0.91553 0.78476-1.3733 1.1117-3.139 1.1117-5.6894-0.91554-7.1936-0.39238-0.26169-0.78476-0.45779-1.2425-0.65398-0.26169-0.0655-0.58857-0.19619-0.85013-0.26168-0.19619-0.0655-0.32697-0.13071-0.52316-0.1962-0.45778-0.13069-0.91557-0.26169-1.3733-0.32697-0.45778-0.13068-0.91554-0.19619-1.3733-0.19619-0.45776-0.0655-0.98095-0.13069-1.4387-0.13069-0.32697 0-0.65397 0.0655-0.98094 0.0655-0.52316 0-0.98094 0.0655-1.4387 0.19619-0.45778 0.0655-0.91554 0.13068-1.3733 0.26167-0.45776 0.1307-0.91554 0.26169-1.3733 0.45781-0.45775 0.19618-0.85013 0.39237-1.3079 0.58855-0.39235 0.1962-0.78473 0.45776-1.2425 0.65395-15.237 9.9402-6.1472 33.221 4.2507 39.957-3.9238 0.71934-7.9129 1.5695-9.0246 2.4196-0.06551 0.0655-0.13069 0.1307-0.13069 0.1307 2.812 1.7003 5.7548 3.139 8.8284 4.3815 4.1853 1.3733 8.6323 2.6158 10.594 3.139v0.0655c5.4279 1.1117 10.921 1.5041 16.48 1.1771 28.97-2.0273 52.709-24.066 57.025-53.101 0.1307 0.58858 0.26169 1.1117 0.39238 1.7003 0.19619 1.1771 0.45775 2.4196 0.58854 3.6622v0.0655c0.13069 0.58857 0.19618 1.1771 0.26168 1.7003v0.2617c0.0655 0.58856 0.1307 1.1771 0.1307 1.7003 0.0655 0.71936 0.13069 1.4387 0.13069 2.1581v1.0463c0 0.32701 0.0655 0.71935 0.0655 1.0464 0 0.39239-0.0655 0.78474-0.0655 1.1771v0.91554c0 0.4578-0.0655 0.85015-0.0655 1.3079 0 0.26166 0 0.52317-0.0655 0.85015 0 0.45779-0.0655 0.91553-0.0655 1.4387-0.0655 0.19618-0.0655 0.39237-0.0655 0.58858-0.0655 0.52317-0.13069 0.98094-0.1962 1.5041 0 0.1962 0 0.39236-0.0655 0.58857-0.0655 0.65394-0.19617 1.2425-0.26166 1.8965v0.0655 0.0655c-0.13069 0.58855-0.2617 1.2425-0.3924 1.8311v0.1962c-0.13067 0.58855-0.26169 1.1771-0.39236 1.7657 0 0.0655-0.0655 0.19619-0.0655 0.26167-0.13071 0.58858-0.2617 1.1771-0.45776 1.7657v0.19618c-0.19618 0.65393-0.39238 1.2425-0.52318 1.8311-0.0655 0.0655-0.0655 0.13069-0.0655 0.13069-0.1962 0.65398-0.39236 1.3079-0.58854 1.9619-0.26168 0.65397-0.45777 1.2425-0.71934 1.8965-0.26169 0.65396-0.4578 1.3079-0.71938 1.8965-0.26169 0.65398-0.52318 1.2426-0.78474 1.8965h-0.0655c-0.2617 0.58856-0.5232 1.2425-0.85019 1.8311-0.0655 0.19617-0.13067 0.32697-0.19617 0.45774-0.0655 0.0655-0.0655 0.13069-0.13069 0.1962-4.2507 8.5668-10.529 16.087-18.376 21.973-0.52316 0.32697-1.0463 0.71936-1.5695 1.1117-0.1307 0.1307-0.327 0.19621-0.45779 0.32697-0.45778 0.32698-0.91554 0.65394-1.4387 0.98095l0.19617 0.39238h0.0655c0.91552-0.13068 1.8311-0.26168 2.7466-0.39238h0.0655c1.7003-0.26169 3.4006-0.58857 5.1009-0.91554 0.45774-0.0655 0.98094-0.19617 1.4387-0.327 0.32698-0.0655 0.58858-0.13068 0.91555-0.19619 0.45778-0.0655 0.91554-0.19618 1.3733-0.26167 0.39237-0.13069 0.78475-0.19621 1.1771-0.32698 6.5396-1.5695 12.883-3.7276 18.965-6.278-10.398 14.191-24.327 25.635-40.611 33.156 7.5205-0.52317 15.041-1.7657 22.3-3.8583 26.355-7.7821 48.524-25.504 61.799-49.374-2.6812 15.106-8.6976 29.494-17.591 42.05 6.3434-4.1854 12.164-9.0246 17.461-14.518 14.649-15.303 24.262-34.725 27.532-55.586 2.2235 10.333 2.8774 20.992 1.8965 31.521 47.216-65.854 3.9238-134.13-14.191-152.11-0.0655-0.13068-0.13069-0.19619-0.13069-0.32697-0.0655 0.06548-0.0655 0.06548-0.0655 0.1307 0-0.06548 0-0.06548-0.0655-0.1307 0 0.78476-0.0655 1.5695-0.13069 2.3542-0.1962 1.5041-0.39237 2.9428-0.65397 4.3815-0.32697 1.4387-0.71935 2.8774-1.1117 4.3161-0.45776 1.3733-0.98091 2.812-1.5695 4.1853-0.58857 1.3079-1.2425 2.6812-1.9619 3.9892-0.71936 1.2425-1.5041 2.5504-2.3542 3.7276-0.85015 1.2426-1.7657 2.4196-2.6812 3.5314-0.98095 1.1772-2.0273 2.2235-3.0736 3.2698-0.65394 0.58857-1.2425 1.1117-1.8965 1.6349-0.52315 0.4578-0.98091 0.85018-1.5041 1.3079-1.1771 0.91555-2.3542 1.7657-3.6622 2.5505-1.2425 0.78474-2.5504 1.5695-3.8583 2.2235-1.3733 0.65396-2.7466 1.2425-4.1199 1.8311-1.3733 0.52314-2.812 0.98093-4.2508 1.3733-1.4387 0.39236-2.9428 0.71936-4.3815 0.98092-1.5041 0.2617-3.0082 0.39238-4.4469 0.52319-1.0463 0.0655-2.0927 0.1307-3.139 0.1307-1.5041 0-3.0082-0.1307-4.4469-0.26169-1.5041-0.13069-3.0082-0.32702-4.4469-0.65399-1.5041-0.26168-2.9428-0.65397-4.3815-1.1117h-0.0655c1.4387-0.13069 2.8774-0.2617 4.3162-0.52318 1.5041-0.26168 2.9428-0.58855 4.3815-0.98095 1.4387-0.39236 2.8774-0.85015 4.2507-1.3733 1.4387-0.52317 2.812-1.1771 4.12-1.8311 1.3733-0.65397 2.6158-1.3733 3.9237-2.1581 1.2425-0.85014 2.485-1.7003 3.6622-2.6158 1.1771-0.91553 2.2888-1.8964 3.3352-2.9428 1.1117-0.98096 2.0926-2.0927 3.0736-3.2044 0.98093-1.1771 1.8965-2.3542 2.7466-3.5314 0.1307-0.1962 0.2617-0.45776 0.3924-0.65395 0.65393-1.0463 1.3079-2.0927 1.8964-3.139 0.71936-1.3079 1.3733-2.6158 1.9619-3.9891 0.58857-1.3733 1.1117-2.7466 1.5695-4.1853 0.45776-1.3733 0.78474-2.812 1.1117-4.2507 0.2617-1.5041 0.52315-2.9428 0.65395-4.3815 0.13069-1.5041 0.26168-3.0082 0.26168-4.4469 0-1.0463-0.0655-2.0927-0.13067-3.139-0.1307-1.5041-0.32699-2.9428-0.52318-4.3815-0.26169-1.5041-0.58855-2.9428-0.98095-4.3815-0.45775-1.3733-0.91553-2.812-1.4387-4.1853-0.5232-1.3733-1.1771-2.7466-1.8311-4.0546-0.71935-1.3079-1.4387-2.6158-2.2234-3.8583-0.85014-1.2425-1.7003-2.4196-2.6158-3.5968-0.98091-1.1117-1.9619-2.2235-3.0082-3.3352-0.52314-0.52316-1.1117-1.1117-1.7003-1.6349-2.9428-2.2889-6.0164-4.4469-9.09-6.4088-0.45776-0.26168-0.85014-0.45778-1.3079-0.65398-2.1581-1.3733-4.1854-2.0927-6.2126-2.7466z" fill="#e0234e" fill-rule="evenodd"/>
                  </g>
                  </svg>